<?xml version="1.0" encoding="UTF-8"?>
<!DOCTYPE svg PUBLIC "-//W3C//DTD SVG 1.1//EN" "http://www.w3.org/Graphics/SVG/1.1/DTD/svg11.dtd">
<!-- Creator: CorelDRAW 2020 (64-Bit) -->
<svg xmlns="http://www.w3.org/2000/svg" xml:space="preserve" width="159.107mm" height="114.725mm" version="1.1" style="shape-rendering:geometricPrecision; text-rendering:geometricPrecision; image-rendering:optimizeQuality; fill-rule:evenodd; clip-rule:evenodd"
viewBox="0 0 15896.47 11462.22"
 xmlns:xlink="http://www.w3.org/1999/xlink"
 xmlns:xodm="http://www.corel.com/coreldraw/odm/2003">
 <defs>
  <style type="text/css">
   <![CDATA[
    .fil0 {fill:black}
   ]]>
  </style>
 </defs>
 <g id="Layer_x0020_1">
  <metadata id="CorelCorpID_0Corel-Layer"/>
  <path class="fil0" d="M1335.39 913.12c-3011.35,2740.99 -426.13,6406.57 2779.28,7281.42 1.33,-307.17 4.57,-615.83 10.65,-924.98 -2534.67,-718.03 -4637.1,-3595.07 -2305.67,-5816.77 2500.42,-2163.26 8966.35,583.31 11424.53,1791.26 281.64,138.4 -2329.52,2913.21 -2847.84,3210.41 -1.32,343.58 -8.84,727.09 -31.74,1123.13 1730.9,-868.4 3044.61,-2248.78 3788.4,-4048.08 527.69,513.01 734.13,572.07 1023.25,1328.12 244.67,531.8 698.29,429 717.54,-121.02 38.9,-839.14 -350.89,-2562.87 -812.09,-3258.71 -585.05,-765.56 -1147.98,-89.55 -1344.06,580.3 -101.29,324.76 -206.1,620.78 -322.74,901.23 -2944.39,-1484.18 -9162.85,-4462.92 -12079.5,-2046.31zm1659.54 1833.68c364.99,0 660.86,297.33 660.86,664.1 0,366.78 -295.87,664.1 -660.86,664.1 -365,0 -660.87,-297.31 -660.87,-664.1 0,-366.76 295.87,-664.1 660.87,-664.1zm5514.25 8715.41c1522.98,0 1154.57,-5817.87 1154.57,-7056.29 -112.36,-547.39 -746.87,-419.33 -765.82,121.03 17.3,1578.02 178.39,3985.83 -59.81,5458.22 -109.64,722.38 -303.16,1006.2 -522.44,1006.2 -873.23,0 -2149.53,-4485.39 -2476.79,-5430.89 -38.7,-328.94 -55.84,-859.96 -75.16,-918.02 -65.29,-435.62 -825.01,-450.68 -847.2,92.42 -92.35,980.63 -662.67,6444.23 541.81,6604.77 883.82,-184.08 178.06,-4489.18 445.04,-4489.18 613.5,920.26 1218.94,4611.73 2605.81,4611.73zm5709.86 -8097.51c149.56,-385.29 258.5,-762.79 369.18,-1159.56 69.35,-247.2 456.07,1288.28 564.34,1624.32 8.23,25.54 8.46,102.04 -51.26,48.47 -242.41,-217.39 -589.58,-365.7 -882.26,-513.22z"/>
 </g>
</svg>
