<?xml version="1.0" encoding="UTF-8"?>
<!DOCTYPE svg PUBLIC "-//W3C//DTD SVG 1.1//EN" "http://www.w3.org/Graphics/SVG/1.1/DTD/svg11.dtd">
<!-- Creator: CorelDRAW 2020 (64-Bit) -->
<svg xmlns="http://www.w3.org/2000/svg" xml:space="preserve" width="159.304mm" height="114.913mm" version="1.1" style="shape-rendering:geometricPrecision; text-rendering:geometricPrecision; image-rendering:optimizeQuality; fill-rule:evenodd; clip-rule:evenodd"
viewBox="0 0 15915.89 11480.85"
 xmlns:xlink="http://www.w3.org/1999/xlink"
 xmlns:xodm="http://www.corel.com/coreldraw/odm/2003">
 <defs>
  <style type="text/css">
   <![CDATA[
    .str0 {stroke:#2B2A29;stroke-width:19.98;stroke-miterlimit:22.9256}
    .fil0 {fill:black}
   ]]>
  </style>
 </defs>
 <g id="Layer_x0020_1">
  <metadata id="CorelCorpID_0Corel-Layer"/>
  <path class="fil0 str0" d="M1345.36 921.94c-3011.3,2740.94 -426.12,6406.46 2779.23,7281.29 1.33,-307.17 4.57,-615.82 10.65,-924.97 -2534.63,-718.01 -4637.02,-3595.01 -2305.64,-5816.67 2500.38,-2163.23 8966.2,583.3 11424.33,1791.23 281.63,138.39 -2329.48,2913.16 -2847.79,3210.36 -1.32,343.58 -8.84,727.08 -31.74,1123.11 1730.87,-868.39 3044.56,-2248.74 3788.33,-4048.02 527.68,513 734.12,572.06 1023.24,1328.1 244.67,531.79 698.28,428.99 717.53,-121.02 38.89,-839.12 -350.88,-2562.83 -812.08,-3258.66 -585.04,-765.55 -1147.96,-89.55 -1344.03,580.29 -101.29,324.75 -206.09,620.77 -322.74,901.22 -2944.34,-1484.16 -9162.7,-4462.85 -12079.29,-2046.27zm1659.52 1833.65c364.99,0 660.85,297.33 660.85,664.08 0,366.78 -295.86,664.08 -660.85,664.08 -365,0 -660.86,-297.31 -660.86,-664.08 0,-366.76 295.86,-664.08 660.86,-664.08zm5514.16 8715.27c1522.95,0 1154.55,-5817.77 1154.55,-7056.17 -112.36,-547.38 -746.86,-419.33 -765.81,121.03 17.3,1577.99 178.39,3985.76 -59.81,5458.13 -109.64,722.37 -303.15,1006.18 -522.43,1006.18 -873.21,0 -2149.5,-4485.32 -2476.75,-5430.79 -38.69,-328.93 -55.84,-859.95 -75.16,-918 -65.29,-435.61 -825,-450.67 -847.19,92.42 -92.35,980.61 -662.66,6444.12 541.81,6604.66 883.8,-184.07 178.06,-4489.1 445.03,-4489.1 613.49,920.24 1218.92,4611.65 2605.76,4611.65zm5709.76 -8097.37c149.55,-385.29 258.49,-762.77 369.17,-1159.54 69.35,-247.19 456.06,1288.25 564.33,1624.29 8.23,25.54 8.46,102.04 -51.26,48.47 -242.41,-217.38 -589.57,-365.7 -882.24,-513.21z"/>
 </g>
</svg>
