<svg xmlns="http://www.w3.org/2000/svg" fill="none" viewBox="0 0 18495.75 18495.75">
    <circle cx="9247.87" cy="9247.87" r="9247.87"/>
    <path d="M3836.53 5749.12c-2511.52,2286.03 -355.4,5343.19 2317.97,6072.83 1.11,-256.18 3.81,-513.61 8.89,-771.45 -2113.96,-598.85 -3867.42,-2998.35 -1922.97,-4851.29 2085.39,-1804.2 7478.08,486.49 9528.25,1493.94 234.89,115.42 -1942.86,2429.67 -2375.15,2677.54 -1.1,286.56 -7.37,606.41 -26.47,936.71 1443.59,-724.26 2539.26,-1875.51 3159.59,-3376.17 440.1,427.86 612.27,477.11 853.4,1107.67 204.06,443.53 582.39,357.79 598.45,-100.93 32.44,-699.86 -292.65,-2137.49 -677.31,-2717.82 -487.94,-638.49 -957.44,-74.69 -1120.96,483.99 -84.49,270.84 -171.89,517.74 -269.18,751.64 -2455.67,-1237.83 -7641.97,-3722.16 -10074.5,-1706.66zm1384.09 1529.32c304.4,0 551.16,247.98 551.16,553.86 0,305.9 -246.76,553.87 -551.16,553.87 -304.42,0 -551.18,-247.97 -551.18,-553.87 0,-305.88 246.76,-553.86 551.18,-553.86zm4598.98 7268.81c1270.18,0 962.92,-4852.21 962.92,-5885.07 -93.7,-456.53 -622.9,-349.74 -638.71,100.94 14.42,1316.08 148.77,3324.25 -49.89,4552.24 -91.45,602.48 -252.84,839.19 -435.72,839.19 -728.29,0 -1792.75,-3740.89 -2065.69,-4529.45 -32.27,-274.34 -46.57,-717.22 -62.69,-765.65 -54.45,-363.31 -688.07,-375.87 -706.58,77.08 -77.01,817.86 -552.66,5374.6 451.89,5508.49 737.12,-153.52 148.51,-3744.05 371.17,-3744.05 511.67,767.51 1016.62,3846.27 2173.3,3846.27zm4762.11 -6753.47c124.74,-321.34 215.6,-636.18 307.91,-967.09 57.84,-206.17 380.37,1074.45 470.67,1354.71 6.86,21.3 7.06,85.1 -42.76,40.42 -202.18,-181.3 -491.72,-305 -735.82,-428.04z"/>
    <style>
        circle { fill: #076ABA; }
        path { fill: #FFF; }
        @media (prefers-color-scheme: dark) {
            circle { fill: #FFF; }
            path { fill: #076ABA; }
        }
    </style>
</svg>
